<svg xmlns="http://www.w3.org/2000/svg" viewBox="0 0 512 512" role="img" aria-label="BeeQu Icon">
  <defs>
    <linearGradient id="bg" x1="8%" y1="6%" x2="92%" y2="94%">
      <stop offset="0%" stop-color="#8ED0FF"/>
      <stop offset="52%" stop-color="#4FAFFF"/>
      <stop offset="100%" stop-color="#0A84FF"/>
    </linearGradient>
  </defs>

  <rect width="512" height="512" rx="96" fill="url(#bg)"/>

  <!-- Bee wings -->
  <g fill="none" stroke="#FFFFFF" stroke-linecap="round" stroke-linejoin="round" opacity="0.98">
    <path d="M132 188 C98 152, 98 106, 146 90 C176 114, 182 156, 154 194" stroke-width="17"/>
    <path d="M182 158 C158 112, 176 64, 230 50 C258 86, 262 132, 218 166" stroke-width="17"/>
    <path d="M254 160 C246 108, 274 68, 330 66 C344 110, 330 152, 286 182" stroke-width="17"/>
  </g>

  <!-- Bee body integrated with arrow -->
  <circle cx="242" cy="222" r="9" fill="#FFFFFF"/>
  <path d="M256 196 C276 250, 270 322, 228 378" fill="none" stroke="#FFFFFF" stroke-width="22" stroke-linecap="round"/>
  <path d="M148 304 L224 380 L356 234" fill="none" stroke="#FFFFFF" stroke-width="44" stroke-linecap="round" stroke-linejoin="round"/>

  <!-- Subtle bee stripes -->
  <path d="M248 258 C262 248, 282 246, 298 252" fill="none" stroke="#FFFFFF" stroke-width="10" stroke-linecap="round" opacity="0.94"/>
  <path d="M242 286 C260 276, 284 274, 304 282" fill="none" stroke="#FFFFFF" stroke-width="10" stroke-linecap="round" opacity="0.94"/>
</svg>
