<svg xmlns="http://www.w3.org/2000/svg" viewBox="0 0 512 512" role="img" aria-label="BeeQu Icon">
  <defs>
    <linearGradient id="bg" x1="8%" y1="6%" x2="92%" y2="94%">
      <stop offset="0%" stop-color="#8ED0FF"/>
      <stop offset="52%" stop-color="#4FAFFF"/>
      <stop offset="100%" stop-color="#0A84FF"/>
    </linearGradient>
  </defs>

  <rect width="512" height="512" rx="96" fill="url(#bg)"/>

  <!-- Bee (clearly recognizable) -->
  <g fill="none" stroke="#FFFFFF" stroke-linecap="round" stroke-linejoin="round" opacity="0.98">
    <path d="M220 146 C204 122, 202 94, 224 78 C252 90, 262 118, 250 146" stroke-width="14"/>
    <path d="M292 146 C306 122, 308 94, 286 78 C258 90, 248 118, 260 146" stroke-width="14"/>
    <circle cx="256" cy="176" r="18" stroke-width="12"/>
    <path d="M244 158 C236 146, 226 140, 214 140" stroke-width="8"/>
    <path d="M268 158 C276 146, 286 140, 298 140" stroke-width="8"/>
    <ellipse cx="256" cy="246" rx="38" ry="56" stroke-width="14"/>
    <path d="M228 224 H284" stroke-width="9"/>
    <path d="M224 246 H288" stroke-width="9"/>
    <path d="M228 268 H284" stroke-width="9"/>
  </g>

  <!-- Arrow/check -->
  <path d="M142 320 L228 400 L368 244" fill="none" stroke="#FFFFFF" stroke-width="42" stroke-linecap="round" stroke-linejoin="round"/>
  <path d="M228 400 C264 360, 278 314, 274 282" fill="none" stroke="#FFFFFF" stroke-width="18" stroke-linecap="round"/>
</svg>
