  <defs>
    <linearGradient id="bg" x1="8%" y1="6%" x2="92%" y2="94%">
      <stop offset="0%" stop-color="#8ED0FF"/>
      <stop offset="52%" stop-color="#4FAFFF"/>
      <stop offset="100%" stop-color="#0A84FF"/>
    </linearGradient>
  </defs>

  <rect width="512" height="512" rx="96" fill="url(#bg)"/>

  <!-- Bee: 1:1 nach Bildvorlage -->
  <!-- Flügel -->
  <ellipse cx="180" cy="150" rx="54" ry="22" fill="none" stroke="#fff" stroke-width="16"/>
  <ellipse cx="220" cy="110" rx="38" ry="16" fill="none" stroke="#fff" stroke-width="13"/>
  <ellipse cx="210" cy="180" rx="22" ry="10" fill="none" stroke="#fff" stroke-width="10"/>
  <!-- Kopf -->
  <circle cx="260" cy="210" r="18" fill="#fff"/>
  <!-- Fühler -->
  <path d="M254 196 Q246 180 238 170" stroke="#fff" stroke-width="6" fill="none" stroke-linecap="round"/>
  <path d="M266 196 Q274 180 282 170" stroke="#fff" stroke-width="6" fill="none" stroke-linecap="round"/>
  <!-- Körper (oval) -->
  <ellipse cx="270" cy="270" rx="38" ry="56" fill="none" stroke="#fff" stroke-width="16"/>
  <!-- Streifen -->
  <path d="M250 250 Q270 260 290 250" stroke="#fff" stroke-width="10" fill="none"/>
  <path d="M250 270 Q270 280 290 270" stroke="#fff" stroke-width="10" fill="none"/>
  <!-- Check/Haken als Unterkörper -->
  <path d="M210 340 L270 400 L380 230" fill="none" stroke="#fff" stroke-width="38" stroke-linecap="round" stroke-linejoin="round"/>
</svg>
<svg viewBox="0 0 64 64" fill="none" xmlns="http://www.w3.org/2000/svg">
  <!-- Haken -->
  <path d="M18 34L28 44L46 22" stroke="#0A84FF" stroke-width="5" stroke-linecap="round" stroke-linejoin="round"/>
  <!-- Bienenkörper -->
  <ellipse cx="32" cy="24" rx="7" ry="9" fill="#FFD600" stroke="#222" stroke-width="2"/>
  <!-- Streifen -->
  <rect x="29" y="18" width="6" height="12" rx="3" fill="#222"/>
  <!-- Flügel links -->
  <ellipse cx="27" cy="16" rx="4" ry="7" fill="#B3E6FF" stroke="#0A84FF" stroke-width="1.5"/>
  <!-- Flügel rechts -->
  <ellipse cx="37" cy="16" rx="4" ry="7" fill="#B3E6FF" stroke="#0A84FF" stroke-width="1.5"/>
  <!-- Kopf -->
  <circle cx="32" cy="13" r="4" fill="#FFD600" stroke="#222" stroke-width="2"/>
  <!-- Fühler -->
  <path d="M30 10 Q29 7 27 7" stroke="#222" stroke-width="1.5" stroke-linecap="round"/>
  <path d="M34 10 Q35 7 37 7" stroke="#222" stroke-width="1.5" stroke-linecap="round"/>
</svg>
